<svg width="1160" height="1228" viewBox="0 0 1160 1228" fill="none" xmlns="http://www.w3.org/2000/svg">
<g opacity="0.5" filter="url(#filter0_f_266_53)">
<path fill-rule="evenodd" clip-rule="evenodd" d="M483.786 458.406C565.606 463.392 621.238 529.8 678.387 585.175C734.302 639.354 819.33 694.339 803.781 768.464C788.326 842.144 674.594 842.261 614.178 891.277C562.932 932.854 550.062 1015.36 483.786 1028.08C411.742 1041.9 342.854 998.792 286.677 954.116C224.257 904.475 162.094 845.279 157.338 768.464C152.392 688.598 202.453 616.621 262.261 559.815C322.36 502.734 398.615 453.215 483.786 458.406Z" fill="#668FB5"/>
<path fill-rule="evenodd" clip-rule="evenodd" d="M371.723 201.547C402.391 199.271 433.534 198.239 462.565 208.395C492.992 219.038 522.817 235.37 542.177 261.175C561.414 286.816 560 321.544 570.251 351.929C581.614 385.608 612.191 415.864 606.189 450.902C600.232 485.677 562.004 504.156 539.521 531.32C517.444 557.992 504.805 594.266 474.185 610.386C443.445 626.568 406.432 618.495 371.723 619.654C336.018 620.846 298.311 632.426 265.918 617.34C233.492 602.239 217.833 566.016 195.867 537.756C174.117 509.772 146.118 485.212 136.66 451.039C127.09 416.463 133.882 379.738 142.491 344.91C151.013 310.437 159.52 272.424 186.506 249.384C213.335 226.479 253.004 230.23 287.142 221.413C315.539 214.079 342.477 203.717 371.723 201.547Z" fill="#BAF144"/>
<path fill-rule="evenodd" clip-rule="evenodd" d="M687.131 458.557C754.157 465.358 780.023 540.622 824.244 588.549C863.085 630.646 910.763 663.855 926.226 717.692C947.836 792.931 989.758 893.002 925.94 942.621C861.169 992.982 770.856 909.856 687.131 903.591C616.747 898.325 544.237 943.379 483.472 909.513C411.436 869.364 346.126 796.217 353.582 717.692C360.864 641.004 453.849 606.359 516.911 557.366C570.361 515.841 618.242 451.567 687.131 458.557Z" fill="#FDD240" fill-opacity="0.8"/>
</g>
<g style="mix-blend-mode:color-burn" opacity="0.5" filter="url(#filter1_f_266_53)">
<path fill-rule="evenodd" clip-rule="evenodd" d="M609.62 363.364C691.439 368.35 747.071 434.759 804.22 490.133C860.135 544.312 945.163 599.297 929.615 673.422C914.159 747.102 800.427 747.219 740.012 796.235C688.766 837.812 675.895 920.321 609.62 933.038C537.576 946.861 468.688 903.75 412.511 859.074C350.091 809.433 287.928 750.238 283.171 673.422C278.226 593.557 328.286 521.579 388.095 464.773C448.193 407.693 524.448 358.173 609.62 363.364Z" fill="#668FB5"/>
<path fill-rule="evenodd" clip-rule="evenodd" d="M525.378 266.154C592.404 272.955 618.271 348.219 662.491 396.146C701.332 438.243 749.01 471.453 764.473 525.29C786.083 600.528 828.005 700.599 764.187 750.218C699.416 800.579 609.103 717.453 525.378 711.189C454.994 705.922 382.484 750.977 321.719 717.11C249.683 676.962 184.373 603.815 191.829 525.29C199.111 448.601 292.096 413.956 355.158 364.964C408.608 323.438 456.489 259.165 525.378 266.154Z" fill="#FDD240"/>
</g>
<defs>
<filter id="filter0_f_266_53" x="-68" y="0.0351562" width="1227.84" height="1230.67" filterUnits="userSpaceOnUse" color-interpolation-filters="sRGB">
<feFlood flood-opacity="0" result="BackgroundImageFix"/>
<feBlend mode="normal" in="SourceGraphic" in2="BackgroundImageFix" result="shape"/>
<feGaussianBlur stdDeviation="100" result="effect1_foregroundBlur_266_53"/>
</filter>
<filter id="filter1_f_266_53" x="-8.75293" y="65.6284" width="1140.24" height="1070.04" filterUnits="userSpaceOnUse" color-interpolation-filters="sRGB">
<feFlood flood-opacity="0" result="BackgroundImageFix"/>
<feBlend mode="normal" in="SourceGraphic" in2="BackgroundImageFix" result="shape"/>
<feGaussianBlur stdDeviation="100" result="effect1_foregroundBlur_266_53"/>
</filter>
</defs>
</svg>
