<svg width="1400" height="1434" viewBox="0 0 1400 1434" fill="none" xmlns="http://www.w3.org/2000/svg">
<g opacity="0.5" filter="url(#filter0_f_212_549)">
<path fill-rule="evenodd" clip-rule="evenodd" d="M886.516 171.69C966.198 185.751 1036.74 229.429 1093.76 285.125C1143.43 333.641 1153.27 404.466 1186.53 464.717C1222.7 530.23 1290.01 580.742 1297.77 654.648C1306.32 736.062 1299.62 838.775 1230.8 886.272C1159.09 935.768 1060.04 876.047 972.046 879.454C910.876 881.823 854.915 906.429 793.788 903.195C717.945 899.183 636.799 901.721 575.365 858.468C508.415 811.331 438.92 738.48 446.462 658.658C454.236 576.369 581.396 553.095 611.521 475.783C645.478 388.632 560.916 272.355 624.288 202.278C683.488 136.814 798.111 156.089 886.516 171.69Z" fill="#A865FE"/>
<path fill-rule="evenodd" clip-rule="evenodd" d="M672.472 569.401C764.851 575.187 827.664 652.243 892.189 716.496C955.321 779.362 1051.32 843.164 1033.77 929.174C1016.32 1014.67 887.906 1014.8 819.693 1071.68C761.832 1119.92 747.301 1215.66 672.472 1230.42C591.129 1246.46 513.349 1196.43 449.922 1144.59C379.446 1086.99 309.259 1018.31 303.889 929.174C298.305 836.502 354.826 752.984 422.354 687.07C490.21 620.837 576.307 563.379 672.472 569.401Z" fill="#668FB5"/>
<path fill-rule="evenodd" clip-rule="evenodd" d="M751.564 368.64C786.19 365.999 821.352 364.801 854.13 376.586C888.484 388.936 922.159 407.887 944.018 437.829C965.737 467.581 964.141 507.878 975.715 543.133C988.545 582.213 1023.07 617.32 1016.29 657.976C1009.57 698.327 966.404 719.768 941.019 751.288C916.093 782.236 901.822 824.327 867.25 843.031C832.542 861.808 790.753 852.44 751.564 853.785C711.251 855.168 668.677 868.605 632.102 851.1C595.492 833.578 577.811 791.547 553.01 758.755C528.453 726.286 496.84 697.787 486.161 658.135C475.356 618.015 483.025 575.402 492.745 534.99C502.367 494.989 511.972 450.881 542.441 424.147C572.733 397.569 617.521 401.922 656.065 391.691C688.128 383.181 718.543 371.158 751.564 368.64Z" fill="#BAF144"/>
<path fill-rule="evenodd" clip-rule="evenodd" d="M857.506 469.14C911.049 477.658 972.181 442.47 1017.5 471.354C1063.04 500.381 1089.26 560.746 1083.6 613.241C1077.91 665.956 996.128 687.101 988.557 739.594C982.608 780.836 1046.85 805.558 1049.87 847.097C1053.53 897.397 1044.31 954.872 1006.76 989.818C969.136 1024.82 905.264 1046.45 857.506 1026.1C805.464 1003.91 809.215 927.061 768.764 888.375C742.281 863.048 698.064 867.065 668.422 845.264C628.091 815.601 587.71 784.106 566.472 739.594C539.191 682.415 512.754 617.559 530.924 557.083C549.677 494.67 599.27 432.532 663.964 415.11C729.772 397.389 790.103 458.417 857.506 469.14Z" fill="#F19494"/>
<path fill-rule="evenodd" clip-rule="evenodd" d="M577.357 456.605C653.035 464.496 682.239 551.828 732.167 607.44C776.022 656.287 829.853 694.821 847.312 757.29C871.711 844.592 919.044 960.708 846.989 1018.28C773.858 1076.72 671.889 980.265 577.357 972.995C497.889 966.884 416.02 1019.16 347.413 979.866C266.078 933.28 192.339 848.405 200.758 757.29C208.98 668.305 313.966 628.106 385.167 571.257C445.516 523.073 499.577 448.495 577.357 456.605Z" fill="#FDD240"/>
<path fill-rule="evenodd" clip-rule="evenodd" d="M1019.61 453.865C1096.26 440.294 1191.23 422.851 1242.94 479.269C1294.31 535.304 1252.59 621.37 1241.06 695.447C1232.06 753.258 1218.48 806.71 1184.46 855.019C1139.62 918.699 1098.46 999.241 1019.61 1009.93C936.2 1021.24 860.688 964.568 801.055 906.998C741.33 849.339 679.523 775.91 693.857 695.447C707.439 619.203 801.893 593.176 865.341 546.122C915.221 509.131 957.798 464.808 1019.61 453.865Z" fill="#A7E7A6"/>
<path fill-rule="evenodd" clip-rule="evenodd" d="M872.634 340.636C969.542 326.703 1062.36 392.164 1124.04 465.844C1180.28 533.03 1200.13 624.687 1181.16 709.19C1165.09 780.78 1091.82 818.06 1034.29 865.67C983.929 907.354 936.987 949.25 872.634 964.545C782.814 985.894 667.014 1034.59 605.747 967.526C544 899.935 623.055 798.026 639.356 709.19C651.003 645.72 651.465 583.752 686.256 528.785C735.007 451.765 780.33 353.907 872.634 340.636Z" fill="#DF79A4"/>
</g>
<g style="mix-blend-mode:color-burn" opacity="0.5" filter="url(#filter1_f_212_549)">
<path fill-rule="evenodd" clip-rule="evenodd" d="M763.448 15.2572C843.13 29.3186 913.668 72.9965 970.692 128.692C1020.37 177.209 1030.2 248.034 1063.47 308.284C1099.64 373.797 1166.94 424.31 1174.7 498.216C1183.25 579.63 1176.55 682.342 1107.74 729.839C1036.02 779.336 936.975 719.614 848.977 723.022C787.808 725.391 731.847 749.997 670.72 746.763C594.877 742.75 513.731 745.288 452.297 702.035C385.347 654.899 315.852 582.047 323.394 502.226C331.168 419.936 458.328 396.663 488.453 319.35C522.41 232.199 437.848 115.923 501.22 45.8453C560.42 -19.6187 675.043 -0.343493 763.448 15.2572Z" fill="#A865FE"/>
<path fill-rule="evenodd" clip-rule="evenodd" d="M710.01 480.119C802.39 485.905 865.202 562.961 929.727 627.214C992.859 690.08 1088.86 753.882 1071.31 839.891C1053.86 925.385 925.444 925.521 857.231 982.396C799.371 1030.64 784.839 1126.38 710.01 1141.13C628.667 1157.17 550.888 1107.15 487.46 1055.31C416.984 997.71 346.797 929.023 341.427 839.891C335.843 747.22 392.365 663.702 459.893 597.788C527.748 531.555 613.845 474.096 710.01 480.119Z" fill="#668FB5"/>
<path fill-rule="evenodd" clip-rule="evenodd" d="M823.824 430.539C858.45 427.899 893.612 426.701 926.391 438.485C960.744 450.835 994.419 469.786 1016.28 499.728C1038 529.48 1036.4 569.777 1047.98 605.033C1060.81 644.113 1095.33 679.219 1088.55 719.876C1081.83 760.226 1038.66 781.668 1013.28 813.187C988.353 844.136 974.082 886.226 939.51 904.93C904.803 923.707 863.013 914.339 823.824 915.684C783.511 917.068 740.937 930.505 704.362 913C667.752 895.478 650.071 853.446 625.271 820.655C600.713 788.185 569.1 759.687 558.421 720.034C547.616 679.915 555.285 637.302 565.006 596.889C574.627 556.889 584.232 512.781 614.701 486.047C644.993 459.468 689.781 463.822 728.326 453.591C760.388 445.08 790.803 433.058 823.824 430.539Z" fill="#BAF144"/>
<path fill-rule="evenodd" clip-rule="evenodd" d="M1126.22 381.358C1179.77 389.876 1240.9 354.688 1286.22 383.572C1331.76 412.598 1357.98 472.964 1352.32 525.459C1346.63 578.174 1264.85 599.319 1257.27 651.812C1251.33 693.053 1315.57 717.775 1318.59 759.314C1322.25 809.615 1313.03 867.09 1275.47 902.036C1237.85 937.042 1173.98 958.671 1126.22 938.314C1074.18 916.131 1077.93 839.278 1037.48 800.593C1011 775.266 966.782 779.283 937.14 757.481C896.809 727.818 856.428 696.324 835.19 651.812C807.909 594.633 781.472 529.777 799.642 469.301C818.395 406.887 867.988 344.749 932.682 327.328C998.49 309.607 1058.82 370.635 1126.22 381.358Z" fill="#F19494"/>
<path fill-rule="evenodd" clip-rule="evenodd" d="M803.961 218.942C879.638 226.833 908.843 314.165 958.771 369.777C1002.63 418.624 1056.46 457.158 1073.92 519.627C1098.31 606.928 1145.65 723.045 1073.59 780.62C1000.46 839.055 898.492 742.602 803.961 735.332C724.492 729.221 642.623 781.5 574.016 742.203C492.682 695.617 418.943 610.742 427.362 519.627C435.583 430.642 540.57 390.442 611.77 333.594C672.12 285.41 726.18 210.832 803.961 218.942Z" fill="#FDD240"/>
<path fill-rule="evenodd" clip-rule="evenodd" d="M1057.15 364.585C1133.8 351.014 1228.76 333.571 1280.48 389.989C1331.85 446.024 1290.13 532.089 1278.6 606.167C1269.6 663.977 1256.02 717.43 1222 765.738C1177.16 829.418 1135.99 909.961 1057.15 920.65C973.739 931.958 898.226 875.288 838.593 817.718C778.868 760.058 717.061 686.63 731.395 606.167C744.977 529.923 839.431 503.896 902.88 456.842C952.759 419.85 995.336 375.528 1057.15 364.585Z" fill="#A7E7A6"/>
<path fill-rule="evenodd" clip-rule="evenodd" d="M899.731 376.651C996.639 362.718 1089.45 428.179 1151.13 501.859C1207.38 569.045 1227.22 660.702 1208.26 745.205C1192.19 816.794 1118.91 854.075 1061.39 901.684C1011.03 943.368 964.084 985.265 899.731 1000.56C809.911 1021.91 694.111 1070.61 632.844 1003.54C571.097 935.95 650.152 834.041 666.453 745.205C678.1 681.735 678.562 619.767 713.354 564.799C762.104 487.779 807.428 389.921 899.731 376.651Z" fill="#BB92A4"/>
</g>
<defs>
<filter id="filter0_f_212_549" x="0.100586" y="-43.5674" width="1500.6" height="1477.03" filterUnits="userSpaceOnUse" color-interpolation-filters="sRGB">
<feFlood flood-opacity="0" result="BackgroundImageFix"/>
<feBlend mode="normal" in="SourceGraphic" in2="BackgroundImageFix" result="shape"/>
<feGaussianBlur stdDeviation="100" result="effect1_foregroundBlur_212_549"/>
</filter>
<filter id="filter1_f_212_549" x="122.83" y="-200" width="1430.25" height="1544.18" filterUnits="userSpaceOnUse" color-interpolation-filters="sRGB">
<feFlood flood-opacity="0" result="BackgroundImageFix"/>
<feBlend mode="normal" in="SourceGraphic" in2="BackgroundImageFix" result="shape"/>
<feGaussianBlur stdDeviation="100" result="effect1_foregroundBlur_212_549"/>
</filter>
</defs>
</svg>
