<?xml version="1.0" encoding="utf-8"?>
<!-- Generator: Adobe Illustrator 27.5.0, SVG Export Plug-In . SVG Version: 6.00 Build 0)  -->
<svg version="1.1" id="Ebene_1" xmlns="http://www.w3.org/2000/svg" xmlns:xlink="http://www.w3.org/1999/xlink" x="0px" y="0px"
	 viewBox="0 0 16 16" style="enable-background:new 0 0 16 16;" xml:space="preserve">
<style type="text/css">
	.st0{display:none;}
</style>
<g>
	<path d="M12,1.5c1.4,0,2.5,1.1,2.5,2.5v8c0,1.4-1.1,2.5-2.5,2.5H4c-1.4,0-2.5-1.1-2.5-2.5V4c0-1.4,1.1-2.5,2.5-2.5H12 M12,0H4
		C1.8,0,0,1.8,0,4v8c0,2.2,1.8,4,4,4h8c2.2,0,4-1.8,4-4V4C16,1.8,14.2,0,12,0L12,0z"/>
</g>
<path class="st0" d="M5.9,4.8c0.3,0,0.6,0,0.8,0.1c0.2,0,0.5,0.1,0.6,0.2c0.2,0.1,0.3,0.3,0.4,0.5c0.1,0.2,0.1,0.5,0.1,0.7
	c0,0.3-0.1,0.6-0.2,0.8C7.5,7.3,7.3,7.5,7,7.6C7.4,7.8,7.7,8,7.9,8.2c0.2,0.3,0.3,0.6,0.3,1C8.2,9.5,8.1,9.8,8,10
	c-0.1,0.2-0.3,0.4-0.5,0.6c-0.2,0.1-0.5,0.2-0.7,0.3C6.5,11,6.2,11,5.9,11l-3,0V4.8H5.9z M5.7,7.3c0.2,0,0.5-0.1,0.6-0.2
	C6.5,7,6.5,6.8,6.5,6.6c0-0.1,0-0.3-0.1-0.4c0-0.1-0.1-0.2-0.2-0.2C6.2,6,6.1,5.9,6,5.9c-0.1,0-0.2,0-0.4,0H4.3v1.5
	C4.3,7.3,5.7,7.3,5.7,7.3L5.7,7.3z M5.8,10c0.1,0,0.3,0,0.4,0c0.1,0,0.2-0.1,0.3-0.1s0.2-0.1,0.2-0.2c0-0.1,0.1-0.2,0.1-0.4
	c0-0.3-0.1-0.5-0.3-0.7C6.3,8.3,6.1,8.3,5.8,8.3H4.3V10L5.8,10L5.8,10L5.8,10z M10.1,10c0.2,0.2,0.5,0.3,0.8,0.3
	c0.2,0,0.5-0.1,0.7-0.2c0.2-0.1,0.3-0.3,0.3-0.4H13c-0.2,0.5-0.5,0.9-0.8,1.2c-0.4,0.2-0.8,0.4-1.3,0.4c-0.3,0-0.7-0.1-1-0.2
	c-0.3-0.1-0.5-0.3-0.7-0.5C9,10.3,8.8,10.1,8.8,9.8c-0.1-0.3-0.2-0.6-0.2-1c0-0.3,0-0.7,0.2-0.9C8.9,7.6,9,7.3,9.2,7.1
	C9.4,6.9,9.7,6.7,10,6.6c0.3-0.1,0.6-0.2,0.9-0.2c0.4,0,0.7,0.1,1,0.2c0.3,0.2,0.5,0.3,0.7,0.6c0.2,0.2,0.3,0.5,0.4,0.9
	c0,0.3,0.1,0.6,0,1H9.8C9.8,9.5,9.9,9.8,10.1,10z M11.5,7.6c-0.2-0.2-0.4-0.2-0.7-0.2c-0.2,0-0.4,0-0.5,0.1
	c-0.1,0.1-0.2,0.2-0.3,0.2C9.9,7.8,9.9,7.9,9.9,8c0,0.1,0,0.2,0,0.3h2C11.8,8,11.7,7.8,11.5,7.6L11.5,7.6z M9.6,5.2h2.5v0.6H9.6V5.2
	z"/>
<path class="st0" d="M12.3,2.8c-0.5,0-1,0.4-1,1s0.4,1,1,1l0,0c0.5,0,1-0.4,1-1S12.8,2.8,12.3,2.8z M8,3.9c-2.3,0-4.1,1.8-4.2,4
	c0,2.3,1.8,4.1,4,4.2c0,0,0.1,0,0.1,0c2.3,0,4.1-1.9,4-4.2C12,5.7,10.2,3.9,8,3.9z M8,5.3c1.5,0,2.7,1.2,2.7,2.7S9.5,10.7,8,10.7
	c0,0,0,0,0,0c-1.5,0-2.7-1.2-2.7-2.7S6.5,5.3,8,5.3z"/>
<path d="M5.8,11.5V6H4v5.5H5.8z M4.9,5.3c0.6,0,1-0.4,1-1c0-0.5-0.4-1-1-1s-1,0.4-1,1C3.9,4.8,4.3,5.3,4.9,5.3L4.9,5.3z M8.7,11.5
	V8.4c0-0.2,0-0.3,0.1-0.4c0.1-0.3,0.4-0.7,0.9-0.7c0.7,0,0.9,0.5,0.9,1.2v2.9h1.8V8.4c0-1.7-0.9-2.5-2.1-2.5c-1,0-1.4,0.5-1.7,0.9v0
	h0c0,0,0,0,0,0V6H6.8c0,0.5,0,5.5,0,5.5H8.7z"/>
</svg>
